HIERARCHY
ROOT root
{
	OFFSET	0	13.1	24.9
	CHANNELS 6  Xposition Yposition Zposition Xrotation Yrotation Zrotation
	JOINT spine_1
	{
		OFFSET	0	9.99999	0
		CHANNELS 3  Xrotation Yrotation Zrotation
		JOINT spine_2
		{
			OFFSET	0	112	-10
			CHANNELS 3  Xrotation Yrotation Zrotation
			JOINT spine_3
			{
				OFFSET	0	206.5	19.3
				CHANNELS 3  Xrotation Yrotation Zrotation
				JOINT spine_4
				{
					OFFSET	0	110.4	14.6
					CHANNELS 3  Xrotation Yrotation Zrotation
					JOINT neck_1
					{
						OFFSET	0	71.8	-50.3
						CHANNELS 3  Xrotation Yrotation Zrotation
						JOINT neck_2
						{
							OFFSET	0	86.2	-25.8
							CHANNELS 3  Xrotation Yrotation Zrotation
							JOINT head_ee
							{
								OFFSET	0	179.8	-8.7
								CHANNELS 3  Xrotation Yrotation Zrotation
								End Site
								{
									OFFSET	1	0	0
								}
							}
						}
					}
					JOINT left_clavicle
					{
						OFFSET	-43.2	22.4	-70.8
						CHANNELS 3  Xrotation Yrotation Zrotation
						JOINT left_shoulder
						{
							OFFSET	-93.9	-5.79999	48.7
							CHANNELS 3  Xrotation Yrotation Zrotation
							JOINT left_elbow
							{
								OFFSET	-291.4	-30.8	15.2
								CHANNELS 3  Xrotation Yrotation Zrotation
								JOINT left_lowarm_twist
								{
									OFFSET	-110.7	-3.89999	13.6
									CHANNELS 3  Xrotation Yrotation Zrotation
									JOINT left_hand
									{
										OFFSET	-110.7	-3.89999	13.6
										CHANNELS 3  Xrotation Yrotation Zrotation
										JOINT left_ee
										{
											OFFSET	-80.8	-5.10001	12.1
											CHANNELS 3  Xrotation Yrotation Zrotation
											End Site
											{
												OFFSET	1	0	0
											}
										}
									}
								}
							}
						}
					}
					JOINT right_clavicle
					{
						OFFSET	43.2	22.4	-70.8
						CHANNELS 3  Xrotation Yrotation Zrotation
						JOINT right_shoulder
						{
							OFFSET	93.9	-5.79999	48.7
							CHANNELS 3  Xrotation Yrotation Zrotation
							JOINT right_elbow
							{
								OFFSET	291.4	-30.8	15.2
								CHANNELS 3  Xrotation Yrotation Zrotation
								JOINT right_lowarm_twist
								{
									OFFSET	110.7	-3.89999	13.6
									CHANNELS 3  Xrotation Yrotation Zrotation
									JOINT right_hand
									{
										OFFSET	110.7	-3.89999	13.6
										CHANNELS 3  Xrotation Yrotation Zrotation
										JOINT right_ee
										{
											OFFSET	80.8	-5.10001	12.1
											CHANNELS 3  Xrotation Yrotation Zrotation
											End Site
											{
												OFFSET	1	0	0
											}
										}
									}
								}
							}
						}
					}
				}
			}
		}
	}
	JOINT left_hip
	{
		OFFSET	-82.8	-127.5	0.300001
		CHANNELS 3  Xrotation Yrotation Zrotation
		JOINT left_knee
		{
			OFFSET	-28.2	-396.7	2.2
			CHANNELS 3  Xrotation Yrotation Zrotation
			JOINT left_ankle
			{
				OFFSET	-11.7	-411.3	35.4
				CHANNELS 3  Xrotation Yrotation Zrotation
				JOINT left_toes
				{
					OFFSET	0	-60	-88.6
					CHANNELS 3  Xrotation Yrotation Zrotation
					JOINT left_foot_ee
					{
						OFFSET	-22.5	-16.5	-42.2
						CHANNELS 3  Xrotation Yrotation Zrotation
						End Site
						{
							OFFSET	1	0	0
						}
					}
				}
			}
		}
	}
	JOINT right_hip
	{
		OFFSET	82.8	-127.5	0.300001
		CHANNELS 3  Xrotation Yrotation Zrotation
		JOINT right_knee
		{
			OFFSET	28.2	-396.7	2.2
			CHANNELS 3  Xrotation Yrotation Zrotation
			JOINT right_ankle
			{
				OFFSET	11.7	-411.3	35.4
				CHANNELS 3  Xrotation Yrotation Zrotation
				JOINT right_toes
				{
					OFFSET	0	-60	-88.6
					CHANNELS 3  Xrotation Yrotation Zrotation
					JOINT right_foot_ee
					{
						OFFSET	22.5	-16.5	-42.2
						CHANNELS 3  Xrotation Yrotation Zrotation
						End Site
						{
							OFFSET	1	0	0
						}
					}
				}
			}
		}
	}
}
MOTION
Frames: 15
Frame Time: 0.02
711.723 629.619 -1793.02 -92.7074 63.576 109.376 12.6937 -0.848502 -4.93904 12.7071 -0.532899 -4.98287 12.7126 -0.585451 -4.97698 12.6807 -1.36321 -4.82268 -22.9186 -17.9157 6.43549 -25.8278 -37.3535 -3.69205 -0.0 0.0 -0.0 10.6589 1.80085 20.9055 -15.7797 46.9798 53.206 0.1914 -5.41638 0.0090536 -10.0381 -0.459847 1.19652 3.90068 29.4065 34.8661 -0.0 0.0 -0.0 3.11207 -22.0763 -6.9598 89.1231 -51.8917 -1.6658 0.173464 4.91142 -0.00743922 85.5199 4.48889 8.88982 -7.57093 -30.1711 30.0762 0.0 0.0 0.0 51.9569 -42.9605 -2.67201 -5.02574 0.174054 0.751416 27.5667 26.7974 -3.86347 16.75 -0.0 -0.0 -0.0 0.0 -0.0 17.3885 -12.4902 -23.6689 -10.6391 -0.289758 -1.6047 40.9717 -1.70064 4.94822 40.1361 -0.0 -0.0 0.0 0.0 0.0 
697.616 632.959 -1793.64 -91.8242 63.6028 108.515 12.5425 -0.83825 -5.14759 12.5571 -0.509449 -5.19034 12.5596 -0.550305 -5.18618 12.5246 -1.36142 -5.03485 -18.7416 -16.7047 5.37491 -20.5277 -34.9245 -2.35255 -0.0 0.0 -0.0 10.5251 1.70594 20.6369 -11.3336 52.4289 50.8495 0.192658 -5.45176 0.00917268 -9.60649 -0.435795 1.14682 3.49669 25.1141 31.5149 -0.0 0.0 -0.0 2.735 -23.7161 -6.47381 90.0364 -52.8421 -2.32678 0.16924 4.7924 -0.00708204 85.3772 4.47175 8.88338 -7.27492 -29.9212 28.4535 0.0 0.0 0.0 51.337 -43.0824 -2.84012 -6.87555 0.221418 1.03133 30.79 18.4621 -4.06638 21.0946 -0.0 -0.0 -0.0 0.0 -0.0 14.77 -14.2973 -24.7204 -10.9084 -0.293202 -1.64588 40.2294 -2.00816 4.88391 35.2802 -0.0 -0.0 0.0 0.0 0.0 
670.501 629.281 -1801.55 -89.5745 63.526 106.485 12.5006 -0.898051 -5.11805 12.515 -0.571002 -5.16465 12.5233 -0.608621 -5.16037 12.489 -1.41495 -5.00018 -15.7587 -15.5164 6.57996 -16.871 -33.4831 0.390292 -0.0 0.0 -0.0 10.6018 1.98344 20.7752 -9.11703 52.4063 48.4901 0.19267 -5.45212 0.00917389 -9.47879 -0.428751 1.13208 3.30548 25.3632 30.2563 -0.0 0.0 -0.0 2.21264 -23.8954 -5.7662 88.9718 -54.8313 -0.496434 0.183856 5.20409 -0.00835544 85.3144 4.4642 8.88052 -7.28771 -30.0222 28.4319 0.0 0.0 0.0 51.8437 -43.3722 -3.3379 -13.7335 0.317649 2.07861 33.6607 20.4937 -4.41124 22.5204 -0.0 -0.0 -0.0 0.0 -0.0 13.2872 -13.9093 -24.8549 -11.2209 -0.296956 -1.69369 40.5405 -1.4387 4.91312 34.8082 -0.0 -0.0 0.0 0.0 0.0 
646.597 631.986 -1809.35 -91.1504 63.8469 108.606 12.1909 -0.930883 -5.01323 12.2047 -0.610411 -5.06213 12.2184 -0.620396 -5.06092 12.1855 -1.41093 -4.90009 -13.7354 -15.0193 7.9265 -14.4749 -33.4383 2.56193 -0.0 0.0 -0.0 10.5247 2.35196 20.5907 -8.36773 51.4503 47.5277 0.192973 -5.46062 0.00920263 -10.011 -0.458323 1.1934 3.06822 24.3294 28.4692 -0.0 0.0 -0.0 1.76276 -24.4332 -5.18404 89.9167 -56.3465 2.19815 0.200556 5.67383 -0.0099384 85.5398 4.49127 8.89071 -7.25947 -29.886 28.3917 0.0 0.0 0.0 49.2714 -43.5625 -5.06861 -19.0781 0.305468 2.89826 34.2833 20.6458 -4.47968 23.7133 -0.0 -0.0 -0.0 0.0 -0.0 12.8946 -13.9231 -24.4512 -13.7135 -0.317551 -2.07554 40.3991 -0.710975 4.90525 34.8142 -0.0 -0.0 0.0 0.0 0.0 
631.824 630.403 -1813.91 -92.3302 64.6497 109.991 11.633 -0.836633 -5.0781 11.6472 -0.51224 -5.12089 11.654 -0.471385 -5.1248 11.6197 -1.27383 -4.98665 -17.1839 -15.2214 8.15572 -18.4602 -33.6989 1.51172 -0.0 0.0 -0.0 10.6799 2.68853 20.8827 -5.86775 50.221 47.1396 0.193466 -5.4745 0.00924969 -10.2375 -0.471086 1.21942 2.64518 22.925 25.3709 -0.0 0.0 -0.0 1.4927 -24.7964 -4.84428 89.9201 -57.7298 3.45912 0.210907 5.96462 -0.010988 85.6004 4.49855 8.89344 -7.17422 -29.6987 28.0433 0.0 0.0 0.0 48.1062 -43.6132 -5.87176 -21.2775 0.278268 3.23461 31.487 21.1071 -4.1893 23.4682 -0.0 -0.0 -0.0 0.0 -0.0 12.3215 -15.1854 -25.0196 -15.4473 -0.322073 -2.34151 39.8561 0.473972 4.8672 34.8157 -0.0 -0.0 0.0 0.0 0.0 
630.907 632.031 -1816.1 -94.2168 65.0307 113.487 11.3371 -0.871063 -5.21126 11.3521 -0.538161 -5.25595 11.3616 -0.46946 -5.26252 11.3253 -1.29359 -5.12298 -18.7184 -16.5215 7.91158 -20.5205 -35.8973 0.0782802 -0.0 0.0 -0.0 10.6586 2.68025 20.8397 -4.08792 49.1691 46.7685 0.214151 -6.05566 0.0113274 -10.542 -0.488402 1.25432 2.09964 19.5957 20.9554 -0.0 0.0 -0.0 1.4548 -24.1802 -4.75372 89.9072 -58.618 4.49731 0.258657 7.30175 -0.0165039 85.5766 4.49569 8.89237 -6.90218 -28.6907 27.3154 0.0 0.0 0.0 45.7786 -43.4686 -7.08507 -19.2841 0.303469 2.9298 28.794 18.3501 -3.84242 18.084 -0.0 -0.0 -0.0 0.0 -0.0 12.4556 -16.2174 -25.0201 -17.4378 -0.31734 -2.64686 39.8691 1.21817 4.87472 35.333 -0.0 -0.0 0.0 0.0 0.0 
624.747 636.088 -1818.62 -96.5227 65.6839 116.46 11.0904 -0.938916 -5.25896 11.1056 -0.602856 -5.30785 11.1219 -0.51146 -5.31741 11.0849 -1.34371 -5.1706 -19.0212 -17.8992 7.5605 -21.2449 -38.3121 -1.1411 -0.0 0.0 -0.0 10.9757 2.7774 21.4816 -2.39235 48.3025 46.8873 0.228497 -6.45802 0.0128911 -11.0586 -0.518201 1.3133 1.32942 16.2084 14.9513 -0.0 0.0 -0.0 1.40759 -23.766 -4.66216 89.8866 -59.6153 5.80744 0.295929 8.34003 -0.0215761 84.4354 4.35905 8.83977 -6.89066 -28.4428 27.4794 0.0 0.0 0.0 44.0883 -43.3983 -8.11983 -17.9993 0.314087 2.73295 26.1201 16.0167 -3.50703 12.5292 -0.0 -0.0 -0.0 0.0 -0.0 13.008 -15.7776 -24.6888 -19.9022 -0.29679 -3.02439 39.9432 1.57059 4.88443 36.5051 -0.0 -0.0 0.0 0.0 0.0 
614.311 638.77 -1815.5 -97.3007 66.1944 116.883 10.9035 -0.974427 -5.18514 10.9182 -0.642972 -5.23645 10.9393 -0.536174 -5.24842 10.9034 -1.35726 -5.09856 -17.4963 -18.3212 6.96195 -19.513 -38.9348 -1.29808 -0.0 0.0 -0.0 11.7396 3.06999 23.0338 1.3641 47.9705 45.7802 0.187254 -5.29972 0.0086664 -11.5238 -0.545497 1.3662 0.540696 12.9129 8.74306 -0.0 0.0 -0.0 1.40553 -23.4733 -4.63953 90.0632 -60.7376 7.36923 0.319499 8.99382 -0.0251278 82.868 4.17311 8.7631 -6.62967 -27.119 27.0579 0.0 0.0 0.0 41.9079 -42.8582 -9.50192 -17.472 0.317165 2.65211 27.212 13.7288 -3.61191 7.23061 -0.0 -0.0 -0.0 0.0 -0.0 14.312 -16.3415 -24.3218 -22.4078 -0.259272 -3.40701 39.7558 3.78851 4.89352 38.1137 -0.0 -0.0 0.0 0.0 0.0 
595.353 641.023 -1825.15 -96.7893 65.3542 116.054 10.896 -0.945053 -5.03489 10.9099 -0.62318 -5.08464 10.9296 -0.518479 -5.09635 10.8958 -1.31586 -4.95113 -11.6413 -16.7503 9.13652 -12.1925 -37.5648 3.88379 -0.0 0.0 -0.0 11.4004 2.16201 22.4121 3.24965 48.0676 45.3903 0.171665 -4.86074 0.00728609 -12.0784 -0.578595 1.42897 0.00219058 11.9401 4.93875 -0.0 0.0 -0.0 2.0506 -23.3388 -5.51828 88.7528 -61.063 9.55926 0.34447 9.68391 -0.0291801 80.9728 3.95117 8.66365 -6.43887 -26.0099 26.8352 0.0 0.0 0.0 40.4498 -42.4047 -10.12 -17.102 0.318882 2.59536 31.5358 12.7228 -4.07814 1.85743 -0.0 -0.0 -0.0 0.0 -0.0 16.7409 -17.1466 -25.2192 -24.1569 -0.223178 -3.67298 39.3702 6.21044 4.89625 39.6264 -0.0 -0.0 0.0 0.0 0.0 
573.159 643.67 -1833.1 -97.4626 65.3772 116.71 10.447 -0.954505 -4.9544 10.4605 -0.637715 -5.00492 10.4835 -0.495494 -5.02095 10.4506 -1.2813 -4.88028 -7.71682 -16.4914 10.6021 -7.38127 -38.1688 7.07015 -0.0 0.0 -0.0 11.1953 1.15818 22.0657 4.16438 48.3788 45.6687 0.188943 -5.34725 0.00882313 -12.4522 -0.601244 1.47109 -0.450414 11.3649 1.82807 -0.0 0.0 -0.0 2.48059 -23.5245 -6.11818 87.1843 -61.0733 11.6886 0.35282 9.91404 -0.0306011 79.5924 3.79163 8.58663 -6.37174 -25.7483 26.6339 0.0 0.0 0.0 40.219 -42.2544 -10.3611 -16.8297 0.319911 2.55359 34.6013 12.5368 -4.3913 -2.64711 0.0 0.0 -0.0 0.0 -0.0 18.9523 -14.4333 -25.4818 -25.4033 -0.192511 -3.86179 39.6934 5.37802 4.91089 40.1726 -0.0 -0.0 0.0 0.0 0.0 
568.444 640.506 -1836.52 -99.5533 64.688 118.86 10.183 -1.01326 -4.87309 10.196 -0.701505 -4.9275 10.2256 -0.53935 -4.94783 10.1938 -1.3131 -4.80115 -4.77358 -16.7905 9.95688 -3.88476 -38.2357 7.5842 -0.0 0.0 -0.0 11.2942 -0.681011 22.4032 5.21932 48.2729 46.1888 0.200641 -5.67621 0.00994677 -12.2448 -0.58864 1.44773 -0.916479 12.0219 -0.844189 -0.0 0.0 -0.0 2.68808 -23.1386 -6.39183 86.2581 -60.7912 13.2678 0.339085 9.53532 -0.0282811 78.6254 3.68099 8.53039 -6.19845 -24.3934 26.6854 0.0 0.0 0.0 40.175 -42.1578 -10.7291 -16.6746 0.320408 2.5298 36.8185 13.0604 -4.61293 -5.80011 0.0 0.0 -0.0 0.0 -0.0 20.5757 -12.3959 -25.5515 -26.285 -0.16834 -3.99493 39.7937 4.43702 4.90561 40.1771 -0.0 -0.0 0.0 0.0 0.0 
561.097 636.625 -1833.99 -100.463 65.0833 121.085 9.95774 -1.07841 -4.97976 9.97121 -0.759764 -5.03809 10.0068 -0.57484 -5.06246 9.97365 -1.36619 -4.90879 -3.12741 -17.9716 7.8491 -2.05002 -38.7248 5.83506 -0.0 0.0 -0.0 11.7615 -1.85515 23.4786 5.56747 48.0713 47.7795 0.222733 -6.29644 0.0122508 -11.1004 -0.520638 1.31807 -1.59069 13.143 -4.59062 -0.0 0.0 -0.0 2.08054 -22.8121 -5.53379 84.7322 -60.7365 14.0039 0.240098 6.78292 -0.0142286 77.369 3.53869 8.45456 -5.99032 -22.607 26.8155 0.0 0.0 0.0 39.9532 -41.927 -10.6601 -16.5815 0.320676 2.51552 41.8313 12.3944 -5.05735 -11.0344 0.0 0.0 -0.0 0.0 -0.0 23.1123 -11.5495 -25.1833 -28.522 -0.0978322 -4.331 40.0959 1.20276 4.89407 40.1071 -0.0 -0.0 0.0 0.0 0.0 
554.031 639.067 -1834.67 -100.402 65.0898 121.252 9.79667 -1.11261 -5.21483 9.81145 -0.779 -5.27483 9.84961 -0.570995 -5.3013 9.81314 -1.39996 -5.14532 -3.30141 -18.2281 7.1804 -2.30937 -38.7065 5.00549 -0.0 0.0 -0.0 11.6696 -1.84061 23.2795 6.30081 47.6254 46.767 0.240004 -6.78028 0.0142175 -10.9041 -0.509233 1.29569 -1.29983 11.7476 -3.39409 -0.0 0.0 -0.0 1.91342 -22.792 -5.2999 85.062 -60.7932 14.3596 0.217748 6.15661 -0.0117102 77.3662 3.53837 8.45438 -5.84347 -22.5623 25.8783 0.0 0.0 0.0 39.706 -41.9024 -10.7024 -16.9099 0.319628 2.5659 41.6676 12.5929 -5.04581 -10.905 0.0 0.0 -0.0 0.0 -0.0 24.0551 -18.2191 -22.3703 -37.2713 0.302359 -5.61248 40.488 3.43995 4.95172 40.3745 -0.0 -0.0 0.0 0.0 0.0 
550.241 643.391 -1822.59 -101.991 63.9948 121.29 9.81149 -1.10957 -5.17984 9.82607 -0.778175 -5.23972 9.86407 -0.572865 -5.26605 9.8281 -1.39627 -5.1102 -2.57371 -16.671 6.74653 -1.63218 -35.4743 4.98443 -0.0 0.0 -0.0 11.4875 -3.06087 22.9537 6.29906 49.4835 46.7088 0.171313 -4.85081 0.00725619 -10.6255 -0.493184 1.26387 -1.27927 10.8309 -3.67892 -0.0 0.0 -0.0 1.85338 -22.7213 -5.21231 85.2288 -60.1606 13.6978 0.193511 5.47575 -0.00925393 77.9476 3.60402 8.48987 -5.15543 -22.281 21.6434 0.0 0.0 0.0 37.6666 -39.8846 -11.6315 -13.663 0.317298 2.0678 36.2277 13.5544 -4.56157 -8.67664 0.0 0.0 -0.0 0.0 -0.0 29.6305 -25.6691 -16.8306 -46.617 0.940466 -6.89853 39.4464 6.0599 4.90038 39.7838 -0.0 -0.0 0.0 0.0 0.0 
541.891 633.906 -1826.3 -103.58 63.7048 123.606 9.59645 -1.14938 -5.3553 9.61204 -0.806793 -5.41733 9.65382 -0.574684 -5.44676 9.61527 -1.42649 -5.28842 -2.66069 -17.6794 6.85091 -1.63131 -37.3934 4.96134 -0.0 0.0 -0.0 11.3918 -3.8777 22.7839 5.84189 50.9264 46.6596 0.18689 -5.2895 0.00863295 -10.5599 -0.489424 1.25636 -1.29893 10.4097 -3.99562 -0.0 0.0 -0.0 1.60416 -23.2385 -4.89732 86.0668 -59.9024 16.5337 0.184872 5.2327 -0.00844789 78.2885 3.64267 8.51036 -4.81959 -24.3537 18.0683 0.0 0.0 0.0 36.3384 -36.9688 -12.4557 -11.5198 0.300301 1.73942 34.6852 14.2334 -4.41735 -9.70831 0.0 0.0 -0.0 0.0 -0.0 36.1175 -27.1583 -8.93487 -60.4941 2.25358 -8.57966 40.0838 2.06166 4.90143 40.2313 -0.0 -0.0 0.0 0.0 0.0 
